<?xml version="1.0" standalone="no"?>
<!DOCTYPE svg PUBLIC "-//W3C//DTD SVG 20010904//EN"
 "http://www.w3.org/TR/2001/REC-SVG-20010904/DTD/svg10.dtd">
<svg version="1.0" xmlns="http://www.w3.org/2000/svg"
 width="512.000000pt" height="512.000000pt" viewBox="0 0 512.000000 512.000000"
 preserveAspectRatio="xMidYMid meet">

<g transform="translate(0.000000,512.000000) scale(0.100000,-0.100000)"
fill="#000000" stroke="none">
<path d="M1454 4320 l-1079 -800 -84 0 c-115 0 -156 -14 -216 -75 -64 -63 -75
-100 -75 -245 0 -145 11 -182 75 -245 56 -57 102 -75 189 -75 l56 0 0 -1015 0
-1016 25 -24 c32 -33 78 -33 110 0 l25 24 0 1016 0 1015 1655 0 1656 0 24 25
c33 32 33 78 0 110 l-24 25 -1791 0 -1791 0 -24 25 c-24 23 -25 31 -25 135 0
104 1 112 25 135 l24 25 2351 0 2351 0 24 -25 c24 -23 25 -31 25 -135 0 -104
-1 -112 -25 -135 l-24 -25 -431 0 -431 0 -24 -25 c-16 -15 -25 -36 -25 -55 0
-19 9 -40 25 -55 l24 -25 296 0 295 0 0 -215 c0 -216 0 -216 25 -240 32 -33
78 -33 110 0 25 24 25 24 25 240 l0 215 56 0 c87 0 133 18 189 75 64 63 75
100 75 245 0 138 -11 178 -67 240 -55 61 -107 80 -222 80 l-86 1 -1079 799
c-802 595 -1085 800 -1105 800 -20 0 -305 -205 -1107 -800z m2065 -90 l952
-705 -956 -3 c-525 -1 -1385 -1 -1910 0 l-955 3 952 707 c524 388 956 706 959
705 4 -1 435 -319 958 -707z"/>
<path d="M665 2215 l-25 -24 0 -511 0 -511 25 -24 24 -25 511 0 511 0 24 25
25 24 0 511 0 511 -25 24 -24 25 -511 0 -511 0 -24 -25z m455 -295 l0 -160
-160 0 -160 0 0 160 0 160 160 0 160 0 0 -160z m480 0 l0 -160 -160 0 -160 0
0 160 0 160 160 0 160 0 0 -160z m-480 -480 l0 -160 -160 0 -160 0 0 160 0
160 160 0 160 0 0 -160z m480 0 l0 -160 -160 0 -160 0 0 160 0 160 160 0 160
0 0 -160z"/>
<path d="M2080 2227 c-49 -16 -133 -102 -148 -153 -9 -31 -12 -272 -12 -978
l0 -936 -261 0 c-205 0 -260 3 -255 13 46 111 45 204 -6 299 -57 108 -146 161
-274 163 l-81 2 -38 41 c-22 25 -68 57 -113 80 -72 35 -81 37 -171 37 -87 0
-102 -3 -162 -31 -36 -18 -88 -53 -115 -79 l-49 -48 -80 -1 c-95 -3 -158 -29
-220 -91 -65 -65 -89 -125 -89 -225 0 -67 5 -94 22 -130 34 -71 75 -113 144
-151 l63 -34 1378 -3 1378 -2 24 24 c33 33 33 79 0 111 l-24 25 -456 0 -455 0
0 935 0 936 25 24 24 25 271 0 271 0 24 25 c16 15 25 36 25 55 0 19 -9 40 -25
55 l-24 25 -278 -1 c-172 -1 -291 -5 -313 -12z m-1289 -1598 c47 -15 103 -60
135 -110 13 -21 36 -46 50 -56 24 -16 29 -16 79 2 66 22 114 16 162 -21 87
-66 82 -189 -11 -258 -27 -21 -38 -21 -486 -21 -450 0 -459 0 -487 21 -97 72
-98 195 -3 266 40 29 94 33 155 13 50 -18 55 -18 79 -2 14 10 37 35 51 57 62
98 169 140 276 109z"/>
<path d="M3050 2225 c-57 -18 -115 -66 -142 -118 -17 -32 -22 -59 -22 -112 0
-84 20 -128 88 -195 25 -24 46 -48 46 -52 0 -4 -22 -41 -49 -83 -71 -109 -80
-200 -26 -290 29 -51 229 -247 274 -270 49 -25 130 -30 184 -12 25 8 73 34
106 56 33 23 64 41 68 41 5 0 26 -17 46 -38 l37 -38 -118 -117 -118 -118 -48
12 c-73 18 -191 7 -259 -24 -75 -34 -182 -136 -213 -202 -42 -88 -29 -174 39
-257 52 -64 98 -93 133 -84 15 4 61 40 104 81 44 41 86 75 94 75 43 0 86 -43
86 -86 0 -8 -34 -50 -75 -94 -41 -43 -77 -89 -81 -104 -8 -33 22 -82 81 -130
123 -101 246 -86 373 47 85 89 115 156 120 268 3 53 0 101 -8 124 l-12 37 118
119 119 119 370 -370 c263 -263 381 -374 410 -386 121 -50 271 11 320 131 22
50 22 140 1 190 -12 29 -123 147 -386 410 l-370 370 119 119 119 118 37 -12
c61 -20 199 -9 266 22 74 34 186 139 215 203 41 87 27 177 -42 260 -48 59 -97
89 -130 81 -15 -4 -61 -40 -104 -81 -44 -41 -86 -75 -94 -75 -43 0 -86 43 -86
86 0 8 34 50 75 94 41 43 77 89 81 104 8 33 -22 82 -81 130 -123 101 -246 86
-373 -47 -85 -89 -115 -156 -120 -268 -3 -53 0 -101 8 -124 l12 -37 -118 -119
-118 -119 -42 41 -42 41 45 64 c24 34 51 84 60 110 18 55 13 135 -12 185 -23
45 -219 245 -270 274 -90 54 -181 45 -290 -26 -42 -27 -78 -49 -81 -49 -4 0
-33 25 -65 55 -86 79 -163 99 -259 70z m139 -175 c23 -17 45 -38 48 -46 4 -11
-13 -35 -51 -72 l-57 -57 -44 47 c-54 56 -58 87 -16 129 37 37 67 37 120 -1z
m1400 21 c11 -7 5 -20 -32 -61 -149 -166 -53 -403 163 -403 69 0 116 20 175
74 50 46 65 43 65 -11 0 -32 -99 -132 -152 -155 -53 -21 -130 -19 -188 6 -34
14 -58 19 -77 14 -17 -4 -85 -63 -173 -151 l-146 -144 -52 52 -52 52 150 151
c164 166 166 168 130 246 -25 56 -26 141 -1 194 10 22 43 64 74 93 55 51 85
62 116 43z m-822 -134 c135 -135 136 -138 64 -247 -102 -156 -243 -296 -403
-402 -107 -71 -110 -70 -245 65 -135 135 -136 138 -64 247 106 161 242 296
401 401 109 72 112 71 247 -64z m626 -1095 c622 -622 598 -593 538 -653 -33
-33 -65 -37 -101 -13 -14 9 -274 265 -577 568 l-553 551 57 57 c32 32 60 58
63 58 3 0 261 -255 573 -568z m-657 -92 c-88 -88 -147 -156 -151 -173 -5 -19
0 -43 14 -77 25 -58 27 -135 6 -188 -23 -53 -123 -152 -155 -152 -55 0 -57 15
-9 67 25 27 54 70 64 96 55 144 -49 304 -204 315 -72 5 -130 -18 -196 -79 -49
-45 -65 -43 -65 9 0 31 93 129 145 153 53 25 138 24 194 -1 78 -36 80 -34 245
130 l151 149 52 -51 53 -52 -144 -146z"/>
<path d="M2825 1095 c-50 -49 -15 -135 55 -135 41 0 80 39 80 80 0 41 -39 80
-80 80 -19 0 -40 -9 -55 -25z"/>
</g>
</svg>
